<svg xmlns="http://www.w3.org/2000/svg" viewBox="0 0 640 360" font-family="-apple-system, BlinkMacSystemFont, 'Helvetica Neue', Arial, sans-serif">
  <rect width="640" height="360" fill="#fafafa" rx="12"/>
  <text x="24" y="34" font-size="16" font-weight="600" fill="#18181b">Context window vs. max output — tokens</text>
  <g font-size="12" fill="#52525b">
    <rect x="380" y="18" width="12" height="12" fill="#2563eb" rx="2"/>
    <text x="398" y="28">Context window</text>
    <rect x="510" y="18" width="12" height="12" fill="#a1a1aa" rx="2"/>
    <text x="528" y="28">Max output</text>
  </g>

  <!-- Fable 5: 1M / 128K -->
  <text x="24" y="94" font-size="13" font-weight="600" fill="#18181b">Fable 5</text>
  <rect x="120" y="76" width="450" height="16" fill="#2563eb" rx="3"/>
  <text x="578" y="89" font-size="12" fill="#52525b">1M</text>
  <rect x="120" y="96" width="58" height="16" fill="#a1a1aa" rx="3"/>
  <text x="186" y="109" font-size="12" fill="#52525b">128K</text>

  <!-- Opus 4.8: 1M / 128K -->
  <text x="24" y="160" font-size="13" font-weight="600" fill="#18181b">Opus 4.8</text>
  <rect x="120" y="142" width="450" height="16" fill="#2563eb" rx="3"/>
  <text x="578" y="155" font-size="12" fill="#52525b">1M</text>
  <rect x="120" y="162" width="58" height="16" fill="#a1a1aa" rx="3"/>
  <text x="186" y="175" font-size="12" fill="#52525b">128K</text>

  <!-- Sonnet 4.6: 1M / 64K -->
  <text x="24" y="226" font-size="13" font-weight="600" fill="#18181b">Sonnet 4.6</text>
  <rect x="120" y="208" width="450" height="16" fill="#2563eb" rx="3"/>
  <text x="578" y="221" font-size="12" fill="#52525b">1M</text>
  <rect x="120" y="228" width="29" height="16" fill="#a1a1aa" rx="3"/>
  <text x="157" y="241" font-size="12" fill="#52525b">64K</text>

  <!-- Haiku 4.5: 200K / 64K -->
  <text x="24" y="292" font-size="13" font-weight="600" fill="#18181b">Haiku 4.5</text>
  <rect x="120" y="274" width="90" height="16" fill="#2563eb" rx="3"/>
  <text x="218" y="287" font-size="12" fill="#52525b">200K</text>
  <rect x="120" y="294" width="29" height="16" fill="#a1a1aa" rx="3"/>
  <text x="157" y="307" font-size="12" fill="#52525b">64K</text>

  <text x="24" y="344" font-size="11" fill="#a1a1aa">Source: Anthropic model documentation, June 2026</text>
</svg>
